<svg xmlns="http://www.w3.org/2000/svg" viewBox="0 0 32 32">
  <g id="fx-water-splash" opacity="0.7">
    <!-- Water drops -->
    <path d="M16 4 Q14 8 16 10 Q18 8 16 4Z" fill="#5DADE2"/>
    <path d="M8 8 Q6 12 8 14 Q10 12 8 8Z" fill="#5DADE2" opacity="0.8"/>
    <path d="M24 8 Q22 12 24 14 Q26 12 24 8Z" fill="#5DADE2" opacity="0.8"/>
    <path d="M4 14 Q3 17 4 18 Q5 17 4 14Z" fill="#85C1E9" opacity="0.6"/>
    <path d="M28 14 Q27 17 28 18 Q29 17 28 14Z" fill="#85C1E9" opacity="0.6"/>
    <!-- Splash base -->
    <ellipse cx="16" cy="26" rx="12" ry="3" fill="#5DADE2" opacity="0.3"/>
    <!-- Small droplets -->
    <circle cx="12" cy="12" r="1.2" fill="#85C1E9" opacity="0.6"/>
    <circle cx="20" cy="10" r="1" fill="#85C1E9" opacity="0.5"/>
    <circle cx="6" cy="18" r="0.8" fill="#5DADE2" opacity="0.4"/>
    <circle cx="26" cy="18" r="0.8" fill="#5DADE2" opacity="0.4"/>
  </g>
</svg>
