<svg xmlns="http://www.w3.org/2000/svg" viewBox="0 0 800 600">
  <!-- Far buildings silhouettes -->
  <g fill="#4A5A6A" opacity="0.6">
    <rect x="0" y="200" width="80" height="400"/>
    <rect x="100" y="180" width="60" height="420"/>
    <rect x="180" y="220" width="90" height="380"/>
    <rect x="300" y="160" width="70" height="440"/>
    <rect x="390" y="240" width="100" height="360"/>
    <rect x="520" y="190" width="60" height="410"/>
    <rect x="600" y="210" width="80" height="390"/>
    <rect x="700" y="170" width="100" height="430"/>
  </g>
  <!-- Windows (distant glow) -->
  <g fill="#F1C40F" opacity="0.2">
    <rect x="20" y="220" width="4" height="4"/><rect x="40" y="240" width="4" height="4"/>
    <rect x="120" y="200" width="4" height="4"/><rect x="130" y="230" width="4" height="4"/>
    <rect x="200" y="250" width="4" height="4"/><rect x="230" y="270" width="4" height="4"/>
    <rect x="320" y="180" width="4" height="4"/><rect x="340" y="210" width="4" height="4"/>
    <rect x="420" y="260" width="4" height="4"/><rect x="460" y="280" width="4" height="4"/>
    <rect x="540" y="210" width="4" height="4"/><rect x="620" y="230" width="4" height="4"/>
    <rect x="650" y="260" width="4" height="4"/><rect x="720" y="190" width="4" height="4"/>
    <rect x="750" y="220" width="4" height="4"/>
  </g>
</svg>
